<svg width="256" height="256" viewBox="0 0 256 256" fill="none" xmlns="http://www.w3.org/2000/svg">
<g clip-path="url(#clip0_1_6)">
<path d="M252.139 158.976C235.051 227.563 165.6 269.269 97.024 252.16C28.48 235.2 -13.2693 165.6 3.86134 97.12C20.928 28.48 90.4 -13.2587 158.933 3.81866C227.52 20.9387 269.248 90.3787 252.139 158.997V158.976ZM184.405 109.771C186.965 92.8107 174.016 83.6373 156.245 77.4507L162.005 54.4853L147.979 50.9653L142.379 73.44C138.699 72.512 134.859 71.6587 131.029 70.7733L136.64 48.0853L122.56 44.5653L116.8 67.6587C113.76 66.944 110.773 66.2507 107.84 65.5253L88.48 60.7253L84.7467 75.7333C84.7467 75.7333 95.1467 78.1333 94.9333 78.2506C100.64 79.7013 101.653 83.4347 101.493 86.4213L85.7387 149.568C84.9387 151.339 83.1787 153.899 79.1893 152.917C79.3493 153.131 68.9493 150.357 68.9493 150.357L61.9093 166.464L80.1493 171.008L90.0693 173.589L84.3093 196.949L98.3893 200.437L104.149 177.291C107.989 178.357 111.669 179.317 115.349 180.203L109.909 203.179L123.989 206.699L129.803 183.339C153.696 187.893 171.723 186.08 179.296 164.416C185.376 146.955 178.976 136.896 166.315 130.325C175.424 128.267 182.315 122.219 184.235 109.739H184.341L184.405 109.771ZM152.299 154.784C147.989 172.277 118.624 162.784 109.099 160.437L116.779 129.504C126.336 131.957 156.853 136.651 152.299 154.784ZM156.672 109.557C152.725 125.451 128.277 117.397 120.352 115.424L127.328 87.264C135.264 89.184 160.789 92.8533 156.661 109.493L156.672 109.557Z" fill="#F7931A"/>
</g>
<defs>
<clipPath id="clip0_1_6">
<rect width="256" height="256" fill="white"/>
</clipPath>
</defs>
</svg>
